<?xml version="1.0" standalone="no"?>
<!DOCTYPE svg PUBLIC "-//W3C//DTD SVG 20010904//EN"
 "http://www.w3.org/TR/2001/REC-SVG-20010904/DTD/svg10.dtd">
<svg version="1.0" xmlns="http://www.w3.org/2000/svg"
 width="1330.000000pt" height="1209.000000pt" viewBox="0 0 1330.000000 1209.000000"
 preserveAspectRatio="xMidYMid meet">

<g transform="translate(0.000000,1209.000000) scale(0.100000,-0.100000)"
fill="#000000" stroke="none">
<path d="M5570 12054 c-503 -77 -915 -174 -1348 -315 -1603 -526 -2791 -1537
-3521 -2997 -313 -626 -538 -1354 -641 -2071 -26 -186 -36 -279 -55 -538 l-6
-83 1475 0 1476 0 4 23 c3 12 15 74 26 137 175 961 704 1736 1542 2259 379
237 843 427 1281 525 l114 26 3687 0 3686 0 0 1530 0 1530 -3782 -1 -3783 -1
-155 -24z"/>
<path d="M10335 6003 c-42 -258 -107 -510 -192 -740 -56 -154 -198 -440 -287
-581 -481 -762 -1281 -1309 -2299 -1575 l-162 -42 -3697 -3 -3698 -2 0 -1525
0 -1525 3823 2 3822 3 210 37 c844 149 1464 343 2100 658 601 297 1062 626
1526 1089 369 369 633 709 898 1155 513 863 844 1950 907 2974 l7 112 -1476 0
-1476 0 -6 -37z"/>
</g>
</svg>
